<?xml version="1.0" encoding="UTF-8" standalone="no"?>
<!DOCTYPE svg PUBLIC "-//W3C//DTD SVG 1.1//EN"
 "http://www.w3.org/Graphics/SVG/1.1/DTD/svg11.dtd">
<!-- Generated by graphviz version 2.40.1 (20161225.0304)
 -->
<!-- Title: %3 Pages: 1 -->
<svg width="1571pt" height="548pt"
 viewBox="0.00 0.00 1570.67 548.00" xmlns="http://www.w3.org/2000/svg" xmlns:xlink="http://www.w3.org/1999/xlink">
<g id="graph0" class="graph" transform="scale(1 1) rotate(0) translate(4 544)">
<title>%3</title>
<polygon fill="#ffffff" stroke="transparent" points="-4,4 -4,-544 1566.6746,-544 1566.6746,4 -4,4"/>
<!-- [root] aws_batch_compute_environment.print&#45;my&#45;brain&#45;compute&#45;environment -->
<g id="node1" class="node">
<title>[root] aws_batch_compute_environment.print&#45;my&#45;brain&#45;compute&#45;environment</title>
<polygon fill="none" stroke="#000000" points="1171.455,-324 748.9216,-324 748.9216,-288 1171.455,-288 1171.455,-324"/>
<text text-anchor="middle" x="960.1883" y="-301.8" font-family="Times,serif" font-size="14.00" fill="#000000">aws_batch_compute_environment.print&#45;my&#45;brain&#45;compute&#45;environment</text>
</g>
<!-- [root] aws_iam_instance_profile.instance&#45;role -->
<g id="node5" class="node">
<title>[root] aws_iam_instance_profile.instance&#45;role</title>
<polygon fill="none" stroke="#000000" points="774.1717,-252 536.2049,-252 536.2049,-216 774.1717,-216 774.1717,-252"/>
<text text-anchor="middle" x="655.1883" y="-229.8" font-family="Times,serif" font-size="14.00" fill="#000000">aws_iam_instance_profile.instance&#45;role</text>
</g>
<!-- [root] aws_batch_compute_environment.print&#45;my&#45;brain&#45;compute&#45;environment&#45;&gt;[root] aws_iam_instance_profile.instance&#45;role -->
<g id="edge1" class="edge">
<title>[root] aws_batch_compute_environment.print&#45;my&#45;brain&#45;compute&#45;environment&#45;&gt;[root] aws_iam_instance_profile.instance&#45;role</title>
<path fill="none" stroke="#000000" d="M883.6176,-287.9243C840.3901,-277.7198 786.2346,-264.9355 741.5043,-254.3762"/>
<polygon fill="#000000" stroke="#000000" points="742.0626,-250.9119 731.5259,-252.0207 740.4543,-257.7246 742.0626,-250.9119"/>
</g>
<!-- [root] aws_iam_role_policy_attachment.aws&#45;batch&#45;service&#45;role -->
<g id="node10" class="node">
<title>[root] aws_iam_role_policy_attachment.aws&#45;batch&#45;service&#45;role</title>
<polygon fill="none" stroke="#000000" points="1128.1102,-252 792.2664,-252 792.2664,-216 1128.1102,-216 1128.1102,-252"/>
<text text-anchor="middle" x="960.1883" y="-229.8" font-family="Times,serif" font-size="14.00" fill="#000000">aws_iam_role_policy_attachment.aws&#45;batch&#45;service&#45;role</text>
</g>
<!-- [root] aws_batch_compute_environment.print&#45;my&#45;brain&#45;compute&#45;environment&#45;&gt;[root] aws_iam_role_policy_attachment.aws&#45;batch&#45;service&#45;role -->
<g id="edge2" class="edge">
<title>[root] aws_batch_compute_environment.print&#45;my&#45;brain&#45;compute&#45;environment&#45;&gt;[root] aws_iam_role_policy_attachment.aws&#45;batch&#45;service&#45;role</title>
<path fill="none" stroke="#000000" d="M960.1883,-287.8314C960.1883,-280.131 960.1883,-270.9743 960.1883,-262.4166"/>
<polygon fill="#000000" stroke="#000000" points="963.6884,-262.4132 960.1883,-252.4133 956.6884,-262.4133 963.6884,-262.4132"/>
</g>
<!-- [root] aws_security_group.print&#45;my&#45;brain&#45;batch -->
<g id="node14" class="node">
<title>[root] aws_security_group.print&#45;my&#45;brain&#45;batch</title>
<polygon fill="none" stroke="#000000" points="1395.8409,-252 1146.5357,-252 1146.5357,-216 1395.8409,-216 1395.8409,-252"/>
<text text-anchor="middle" x="1271.1883" y="-229.8" font-family="Times,serif" font-size="14.00" fill="#000000">aws_security_group.print&#45;my&#45;brain&#45;batch</text>
</g>
<!-- [root] aws_batch_compute_environment.print&#45;my&#45;brain&#45;compute&#45;environment&#45;&gt;[root] aws_security_group.print&#45;my&#45;brain&#45;batch -->
<g id="edge3" class="edge">
<title>[root] aws_batch_compute_environment.print&#45;my&#45;brain&#45;compute&#45;environment&#45;&gt;[root] aws_security_group.print&#45;my&#45;brain&#45;batch</title>
<path fill="none" stroke="#000000" d="M1038.2653,-287.9243C1082.4359,-277.6983 1137.7962,-264.8818 1183.4617,-254.3097"/>
<polygon fill="#000000" stroke="#000000" points="1184.3961,-257.686 1193.349,-252.0207 1182.8172,-250.8664 1184.3961,-257.686"/>
</g>
<!-- [root] data.aws_subnet_ids.all -->
<g id="node15" class="node">
<title>[root] data.aws_subnet_ids.all</title>
<polygon fill="none" stroke="#000000" points="1562.661,-252 1413.7157,-252 1413.7157,-216 1562.661,-216 1562.661,-252"/>
<text text-anchor="middle" x="1488.1883" y="-229.8" font-family="Times,serif" font-size="14.00" fill="#000000">data.aws_subnet_ids.all</text>
</g>
<!-- [root] aws_batch_compute_environment.print&#45;my&#45;brain&#45;compute&#45;environment&#45;&gt;[root] data.aws_subnet_ids.all -->
<g id="edge4" class="edge">
<title>[root] aws_batch_compute_environment.print&#45;my&#45;brain&#45;compute&#45;environment&#45;&gt;[root] data.aws_subnet_ids.all</title>
<path fill="none" stroke="#000000" d="M1140.4484,-287.9721C1218.7546,-279.1878 1311.6819,-267.4882 1403.5568,-252.2038"/>
<polygon fill="#000000" stroke="#000000" points="1404.3123,-255.6261 1413.5949,-250.5188 1403.1534,-248.7227 1404.3123,-255.6261"/>
</g>
<!-- [root] aws_batch_job_definition.brain_printer -->
<g id="node2" class="node">
<title>[root] aws_batch_job_definition.brain_printer</title>
<polygon fill="none" stroke="#000000" points="349.9199,-396 112.4568,-396 112.4568,-360 349.9199,-360 349.9199,-396"/>
<text text-anchor="middle" x="231.1883" y="-373.8" font-family="Times,serif" font-size="14.00" fill="#000000">aws_batch_job_definition.brain_printer</text>
</g>
<!-- [root] provider.aws -->
<g id="node17" class="node">
<title>[root] provider.aws</title>
<polygon fill="none" stroke="#000000" points="546.1883,-108 467.58,-90 546.1883,-72 624.7967,-90 546.1883,-108"/>
<text text-anchor="middle" x="546.1883" y="-85.8" font-family="Times,serif" font-size="14.00" fill="#000000">provider.aws</text>
</g>
<!-- [root] aws_batch_job_definition.brain_printer&#45;&gt;[root] provider.aws -->
<g id="edge5" class="edge">
<title>[root] aws_batch_job_definition.brain_printer&#45;&gt;[root] provider.aws</title>
<path fill="none" stroke="#000000" d="M192.4179,-359.989C112.9982,-320.8032 -54.799,-224.8327 18.1883,-144 47.5955,-111.4319 325.5662,-97.433 465.9195,-92.4009"/>
<polygon fill="#000000" stroke="#000000" points="466.3211,-95.889 476.1919,-92.0398 466.0751,-88.8933 466.3211,-95.889"/>
</g>
<!-- [root] aws_batch_job_queue.print&#45;my&#45;brain&#45;job&#45;queue -->
<g id="node3" class="node">
<title>[root] aws_batch_job_queue.print&#45;my&#45;brain&#45;job&#45;queue</title>
<polygon fill="none" stroke="#000000" points="953.658,-396 666.7186,-396 666.7186,-360 953.658,-360 953.658,-396"/>
<text text-anchor="middle" x="810.1883" y="-373.8" font-family="Times,serif" font-size="14.00" fill="#000000">aws_batch_job_queue.print&#45;my&#45;brain&#45;job&#45;queue</text>
</g>
<!-- [root] aws_batch_job_queue.print&#45;my&#45;brain&#45;job&#45;queue&#45;&gt;[root] aws_batch_compute_environment.print&#45;my&#45;brain&#45;compute&#45;environment -->
<g id="edge6" class="edge">
<title>[root] aws_batch_job_queue.print&#45;my&#45;brain&#45;job&#45;queue&#45;&gt;[root] aws_batch_compute_environment.print&#45;my&#45;brain&#45;compute&#45;environment</title>
<path fill="none" stroke="#000000" d="M848.0397,-359.8314C867.9229,-350.2874 892.4665,-338.5065 913.5188,-328.4013"/>
<polygon fill="#000000" stroke="#000000" points="915.1085,-331.5207 922.6092,-324.038 912.0794,-325.21 915.1085,-331.5207"/>
</g>
<!-- [root] aws_dynamodb_table.print&#45;my&#45;brain -->
<g id="node4" class="node">
<title>[root] aws_dynamodb_table.print&#45;my&#45;brain</title>
<polygon fill="none" stroke="#000000" points="251.1922,-180 27.1844,-180 27.1844,-144 251.1922,-144 251.1922,-180"/>
<text text-anchor="middle" x="139.1883" y="-157.8" font-family="Times,serif" font-size="14.00" fill="#000000">aws_dynamodb_table.print&#45;my&#45;brain</text>
</g>
<!-- [root] aws_dynamodb_table.print&#45;my&#45;brain&#45;&gt;[root] provider.aws -->
<g id="edge7" class="edge">
<title>[root] aws_dynamodb_table.print&#45;my&#45;brain&#45;&gt;[root] provider.aws</title>
<path fill="none" stroke="#000000" d="M241.1039,-143.9707C320.6714,-129.8949 428.1054,-110.8894 491.962,-99.5929"/>
<polygon fill="#000000" stroke="#000000" points="492.5881,-103.0365 501.8255,-97.848 491.3687,-96.1436 492.5881,-103.0365"/>
</g>
<!-- [root] aws_iam_role.instance&#45;role -->
<g id="node8" class="node">
<title>[root] aws_iam_role.instance&#45;role</title>
<polygon fill="none" stroke="#000000" points="805.5168,-180 634.8599,-180 634.8599,-144 805.5168,-144 805.5168,-180"/>
<text text-anchor="middle" x="720.1883" y="-157.8" font-family="Times,serif" font-size="14.00" fill="#000000">aws_iam_role.instance&#45;role</text>
</g>
<!-- [root] aws_iam_instance_profile.instance&#45;role&#45;&gt;[root] aws_iam_role.instance&#45;role -->
<g id="edge8" class="edge">
<title>[root] aws_iam_instance_profile.instance&#45;role&#45;&gt;[root] aws_iam_role.instance&#45;role</title>
<path fill="none" stroke="#000000" d="M671.5906,-215.8314C679.2299,-207.3694 688.4567,-197.1489 696.809,-187.8971"/>
<polygon fill="#000000" stroke="#000000" points="699.4621,-190.1813 703.5652,-180.4133 694.2662,-185.4906 699.4621,-190.1813"/>
</g>
<!-- [root] aws_iam_policy.job&#45;policy -->
<g id="node6" class="node">
<title>[root] aws_iam_policy.job&#45;policy</title>
<polygon fill="none" stroke="#000000" points="438.0829,-252 270.2938,-252 270.2938,-216 438.0829,-216 438.0829,-252"/>
<text text-anchor="middle" x="354.1883" y="-229.8" font-family="Times,serif" font-size="14.00" fill="#000000">aws_iam_policy.job&#45;policy</text>
</g>
<!-- [root] aws_iam_policy.job&#45;policy&#45;&gt;[root] aws_dynamodb_table.print&#45;my&#45;brain -->
<g id="edge9" class="edge">
<title>[root] aws_iam_policy.job&#45;policy&#45;&gt;[root] aws_dynamodb_table.print&#45;my&#45;brain</title>
<path fill="none" stroke="#000000" d="M300.2123,-215.9243C270.6927,-206.0387 233.9439,-193.7321 203.0094,-183.3726"/>
<polygon fill="#000000" stroke="#000000" points="203.7805,-179.9399 193.1866,-180.0831 201.5576,-186.5776 203.7805,-179.9399"/>
</g>
<!-- [root] aws_s3_bucket.print&#45;my&#45;brain -->
<g id="node13" class="node">
<title>[root] aws_s3_bucket.print&#45;my&#45;brain</title>
<polygon fill="none" stroke="#000000" points="457.1479,-180 269.2288,-180 269.2288,-144 457.1479,-144 457.1479,-180"/>
<text text-anchor="middle" x="363.1883" y="-157.8" font-family="Times,serif" font-size="14.00" fill="#000000">aws_s3_bucket.print&#45;my&#45;brain</text>
</g>
<!-- [root] aws_iam_policy.job&#45;policy&#45;&gt;[root] aws_s3_bucket.print&#45;my&#45;brain -->
<g id="edge10" class="edge">
<title>[root] aws_iam_policy.job&#45;policy&#45;&gt;[root] aws_s3_bucket.print&#45;my&#45;brain</title>
<path fill="none" stroke="#000000" d="M356.4594,-215.8314C357.422,-208.131 358.5665,-198.9743 359.6362,-190.4166"/>
<polygon fill="#000000" stroke="#000000" points="363.1192,-190.7702 360.8867,-180.4133 356.1733,-189.9019 363.1192,-190.7702"/>
</g>
<!-- [root] aws_iam_role.aws&#45;batch&#45;service&#45;role -->
<g id="node7" class="node">
<title>[root] aws_iam_role.aws&#45;batch&#45;service&#45;role</title>
<polygon fill="none" stroke="#000000" points="1064.7035,-180 839.6732,-180 839.6732,-144 1064.7035,-144 1064.7035,-180"/>
<text text-anchor="middle" x="952.1883" y="-157.8" font-family="Times,serif" font-size="14.00" fill="#000000">aws_iam_role.aws&#45;batch&#45;service&#45;role</text>
</g>
<!-- [root] aws_iam_role.aws&#45;batch&#45;service&#45;role&#45;&gt;[root] provider.aws -->
<g id="edge11" class="edge">
<title>[root] aws_iam_role.aws&#45;batch&#45;service&#45;role&#45;&gt;[root] provider.aws</title>
<path fill="none" stroke="#000000" d="M850.5232,-143.9707C771.2627,-129.9147 664.2821,-110.9427 600.55,-99.6405"/>
<polygon fill="#000000" stroke="#000000" points="601.1612,-96.1944 590.7036,-97.8943 599.9388,-103.0868 601.1612,-96.1944"/>
</g>
<!-- [root] aws_iam_role.instance&#45;role&#45;&gt;[root] provider.aws -->
<g id="edge12" class="edge">
<title>[root] aws_iam_role.instance&#45;role&#45;&gt;[root] provider.aws</title>
<path fill="none" stroke="#000000" d="M676.2808,-143.8314C647.7675,-132.0328 610.9924,-116.8155 583.8205,-105.5719"/>
<polygon fill="#000000" stroke="#000000" points="584.8558,-102.2126 574.2773,-101.623 582.1793,-108.6807 584.8558,-102.2126"/>
</g>
<!-- [root] aws_iam_role.job&#45;role -->
<g id="node9" class="node">
<title>[root] aws_iam_role.job&#45;role</title>
<polygon fill="none" stroke="#000000" points="617.5374,-180 474.8393,-180 474.8393,-144 617.5374,-144 617.5374,-180"/>
<text text-anchor="middle" x="546.1883" y="-157.8" font-family="Times,serif" font-size="14.00" fill="#000000">aws_iam_role.job&#45;role</text>
</g>
<!-- [root] aws_iam_role.job&#45;role&#45;&gt;[root] provider.aws -->
<g id="edge13" class="edge">
<title>[root] aws_iam_role.job&#45;role&#45;&gt;[root] provider.aws</title>
<path fill="none" stroke="#000000" d="M546.1883,-143.8314C546.1883,-136.131 546.1883,-126.9743 546.1883,-118.4166"/>
<polygon fill="#000000" stroke="#000000" points="549.6884,-118.4132 546.1883,-108.4133 542.6884,-118.4133 549.6884,-118.4132"/>
</g>
<!-- [root] aws_iam_role_policy_attachment.aws&#45;batch&#45;service&#45;role&#45;&gt;[root] aws_iam_role.aws&#45;batch&#45;service&#45;role -->
<g id="edge14" class="edge">
<title>[root] aws_iam_role_policy_attachment.aws&#45;batch&#45;service&#45;role&#45;&gt;[root] aws_iam_role.aws&#45;batch&#45;service&#45;role</title>
<path fill="none" stroke="#000000" d="M958.1696,-215.8314C957.314,-208.131 956.2966,-198.9743 955.3457,-190.4166"/>
<polygon fill="#000000" stroke="#000000" points="958.8172,-189.9656 954.2342,-180.4133 951.8601,-190.7386 958.8172,-189.9656"/>
</g>
<!-- [root] aws_iam_role_policy_attachment.instance&#45;role -->
<g id="node11" class="node">
<title>[root] aws_iam_role_policy_attachment.instance&#45;role</title>
<polygon fill="none" stroke="#000000" points="648.4238,-396 367.9528,-396 367.9528,-360 648.4238,-360 648.4238,-396"/>
<text text-anchor="middle" x="508.1883" y="-373.8" font-family="Times,serif" font-size="14.00" fill="#000000">aws_iam_role_policy_attachment.instance&#45;role</text>
</g>
<!-- [root] aws_iam_role_policy_attachment.instance&#45;role&#45;&gt;[root] aws_iam_role.instance&#45;role -->
<g id="edge15" class="edge">
<title>[root] aws_iam_role_policy_attachment.instance&#45;role&#45;&gt;[root] aws_iam_role.instance&#45;role</title>
<path fill="none" stroke="#000000" d="M504.4433,-359.9228C498.7635,-327.0545 492.0408,-257.1102 527.1883,-216 534.4708,-207.482 583.3055,-193.8608 630.0244,-182.4302"/>
<polygon fill="#000000" stroke="#000000" points="631.0509,-185.7828 639.9459,-180.0269 629.4029,-178.9796 631.0509,-185.7828"/>
</g>
<!-- [root] aws_iam_role_policy_attachment.job&#45;role -->
<g id="node12" class="node">
<title>[root] aws_iam_role_policy_attachment.job&#45;role</title>
<polygon fill="none" stroke="#000000" points="480.4443,-324 227.9323,-324 227.9323,-288 480.4443,-288 480.4443,-324"/>
<text text-anchor="middle" x="354.1883" y="-301.8" font-family="Times,serif" font-size="14.00" fill="#000000">aws_iam_role_policy_attachment.job&#45;role</text>
</g>
<!-- [root] aws_iam_role_policy_attachment.job&#45;role&#45;&gt;[root] aws_iam_policy.job&#45;policy -->
<g id="edge16" class="edge">
<title>[root] aws_iam_role_policy_attachment.job&#45;role&#45;&gt;[root] aws_iam_policy.job&#45;policy</title>
<path fill="none" stroke="#000000" d="M354.1883,-287.8314C354.1883,-280.131 354.1883,-270.9743 354.1883,-262.4166"/>
<polygon fill="#000000" stroke="#000000" points="357.6884,-262.4132 354.1883,-252.4133 350.6884,-262.4133 357.6884,-262.4132"/>
</g>
<!-- [root] aws_iam_role_policy_attachment.job&#45;role&#45;&gt;[root] aws_iam_role.job&#45;role -->
<g id="edge17" class="edge">
<title>[root] aws_iam_role_policy_attachment.job&#45;role&#45;&gt;[root] aws_iam_role.job&#45;role</title>
<path fill="none" stroke="#000000" d="M389.2916,-287.9206C407.1866,-278.1384 428.96,-265.3448 447.1883,-252 474.1584,-232.2554 502.0886,-206.2714 521.3781,-187.3009"/>
<polygon fill="#000000" stroke="#000000" points="523.9514,-189.6781 528.5805,-180.148 519.0187,-184.7113 523.9514,-189.6781"/>
</g>
<!-- [root] aws_s3_bucket.print&#45;my&#45;brain&#45;&gt;[root] provider.aws -->
<g id="edge18" class="edge">
<title>[root] aws_s3_bucket.print&#45;my&#45;brain&#45;&gt;[root] provider.aws</title>
<path fill="none" stroke="#000000" d="M409.3669,-143.8314C439.676,-131.9065 478.8612,-116.4894 507.5238,-105.2123"/>
<polygon fill="#000000" stroke="#000000" points="509.1672,-108.3269 517.1914,-101.4086 506.6043,-101.8129 509.1672,-108.3269"/>
</g>
<!-- [root] data.aws_vpc.default -->
<g id="node16" class="node">
<title>[root] data.aws_vpc.default</title>
<polygon fill="none" stroke="#000000" points="1338.3613,-180 1204.0154,-180 1204.0154,-144 1338.3613,-144 1338.3613,-180"/>
<text text-anchor="middle" x="1271.1883" y="-157.8" font-family="Times,serif" font-size="14.00" fill="#000000">data.aws_vpc.default</text>
</g>
<!-- [root] aws_security_group.print&#45;my&#45;brain&#45;batch&#45;&gt;[root] data.aws_vpc.default -->
<g id="edge19" class="edge">
<title>[root] aws_security_group.print&#45;my&#45;brain&#45;batch&#45;&gt;[root] data.aws_vpc.default</title>
<path fill="none" stroke="#000000" d="M1271.1883,-215.8314C1271.1883,-208.131 1271.1883,-198.9743 1271.1883,-190.4166"/>
<polygon fill="#000000" stroke="#000000" points="1274.6884,-190.4132 1271.1883,-180.4133 1267.6884,-190.4133 1274.6884,-190.4132"/>
</g>
<!-- [root] data.aws_subnet_ids.all&#45;&gt;[root] data.aws_vpc.default -->
<g id="edge20" class="edge">
<title>[root] data.aws_subnet_ids.all&#45;&gt;[root] data.aws_vpc.default</title>
<path fill="none" stroke="#000000" d="M1433.7102,-215.9243C1403.787,-205.9959 1366.5041,-193.6255 1335.1979,-183.2382"/>
<polygon fill="#000000" stroke="#000000" points="1336.2823,-179.9104 1325.6889,-180.0831 1334.0779,-186.5543 1336.2823,-179.9104"/>
</g>
<!-- [root] data.aws_vpc.default&#45;&gt;[root] provider.aws -->
<g id="edge21" class="edge">
<title>[root] data.aws_vpc.default&#45;&gt;[root] provider.aws</title>
<path fill="none" stroke="#000000" d="M1203.9577,-155.3233C1065.2262,-141.5458 748.7625,-110.1177 611.6002,-96.4961"/>
<polygon fill="#000000" stroke="#000000" points="611.5484,-92.9738 601.2515,-95.4683 610.8566,-99.9395 611.5484,-92.9738"/>
</g>
<!-- [root] var.aws_region -->
<g id="node18" class="node">
<title>[root] var.aws_region</title>
<polygon fill="none" stroke="#000000" points="590.8369,-36 495.5398,-36 495.5398,0 596.8369,0 596.8369,-30 590.8369,-36"/>
<polyline fill="none" stroke="#000000" points="590.8369,-36 590.8369,-30 "/>
<polyline fill="none" stroke="#000000" points="596.8369,-30 590.8369,-30 "/>
<text text-anchor="middle" x="546.1883" y="-13.8" font-family="Times,serif" font-size="14.00" fill="#000000">var.aws_region</text>
</g>
<!-- [root] provider.aws&#45;&gt;[root] var.aws_region -->
<g id="edge30" class="edge">
<title>[root] provider.aws&#45;&gt;[root] var.aws_region</title>
<path fill="none" stroke="#000000" d="M546.1883,-71.8314C546.1883,-64.131 546.1883,-54.9743 546.1883,-46.4166"/>
<polygon fill="#000000" stroke="#000000" points="549.6884,-46.4132 546.1883,-36.4133 542.6884,-46.4133 549.6884,-46.4132"/>
</g>
<!-- [root] meta.count&#45;boundary (EachMode fixup) -->
<g id="node19" class="node">
<title>[root] meta.count&#45;boundary (EachMode fixup)</title>
<ellipse fill="none" stroke="#000000" cx="369.1883" cy="-450" rx="174.7874" ry="18"/>
<text text-anchor="middle" x="369.1883" y="-445.8" font-family="Times,serif" font-size="14.00" fill="#000000">[root] meta.count&#45;boundary (EachMode fixup)</text>
</g>
<!-- [root] meta.count&#45;boundary (EachMode fixup)&#45;&gt;[root] aws_batch_job_definition.brain_printer -->
<g id="edge22" class="edge">
<title>[root] meta.count&#45;boundary (EachMode fixup)&#45;&gt;[root] aws_batch_job_definition.brain_printer</title>
<path fill="none" stroke="#000000" d="M335.076,-432.2022C316.8854,-422.7115 294.3048,-410.9304 274.8468,-400.7783"/>
<polygon fill="#000000" stroke="#000000" points="276.3517,-397.6158 265.8668,-396.0931 273.1137,-403.8219 276.3517,-397.6158"/>
</g>
<!-- [root] meta.count&#45;boundary (EachMode fixup)&#45;&gt;[root] aws_batch_job_queue.print&#45;my&#45;brain&#45;job&#45;queue -->
<g id="edge23" class="edge">
<title>[root] meta.count&#45;boundary (EachMode fixup)&#45;&gt;[root] aws_batch_job_queue.print&#45;my&#45;brain&#45;job&#45;queue</title>
<path fill="none" stroke="#000000" d="M462.4435,-434.7747C528.7119,-423.9553 618.2916,-409.3301 689.9344,-397.6333"/>
<polygon fill="#000000" stroke="#000000" points="690.6148,-401.0686 699.9201,-396.003 689.4868,-394.1601 690.6148,-401.0686"/>
</g>
<!-- [root] meta.count&#45;boundary (EachMode fixup)&#45;&gt;[root] aws_iam_role_policy_attachment.instance&#45;role -->
<g id="edge24" class="edge">
<title>[root] meta.count&#45;boundary (EachMode fixup)&#45;&gt;[root] aws_iam_role_policy_attachment.instance&#45;role</title>
<path fill="none" stroke="#000000" d="M403.5479,-432.2022C421.8702,-422.7115 444.6144,-410.9304 464.2135,-400.7783"/>
<polygon fill="#000000" stroke="#000000" points="465.9889,-403.8004 473.2585,-396.0931 462.7692,-397.5848 465.9889,-403.8004"/>
</g>
<!-- [root] meta.count&#45;boundary (EachMode fixup)&#45;&gt;[root] aws_iam_role_policy_attachment.job&#45;role -->
<g id="edge25" class="edge">
<title>[root] meta.count&#45;boundary (EachMode fixup)&#45;&gt;[root] aws_iam_role_policy_attachment.job&#45;role</title>
<path fill="none" stroke="#000000" d="M234.8804,-438.4563C177.9392,-430.5133 120.6717,-417.3893 103.1883,-396 93.0624,-383.6119 93.1346,-372.4468 103.1883,-360 118.6147,-340.9018 167.2394,-328.241 217.6358,-320.0138"/>
<polygon fill="#000000" stroke="#000000" points="218.3944,-323.4376 227.7294,-318.4268 217.3072,-316.5225 218.3944,-323.4376"/>
</g>
<!-- [root] provider.aws (close) -->
<g id="node20" class="node">
<title>[root] provider.aws (close)</title>
<ellipse fill="none" stroke="#000000" cx="666.1883" cy="-450" rx="104.3276" ry="18"/>
<text text-anchor="middle" x="666.1883" y="-445.8" font-family="Times,serif" font-size="14.00" fill="#000000">[root] provider.aws (close)</text>
</g>
<!-- [root] provider.aws (close)&#45;&gt;[root] aws_batch_job_definition.brain_printer -->
<g id="edge26" class="edge">
<title>[root] provider.aws (close)&#45;&gt;[root] aws_batch_job_definition.brain_printer</title>
<path fill="none" stroke="#000000" d="M590.9137,-437.5408C524.7047,-426.582 427.1843,-410.4407 350.3782,-397.728"/>
<polygon fill="#000000" stroke="#000000" points="350.6003,-394.2172 340.1629,-396.0372 349.4571,-401.1232 350.6003,-394.2172"/>
</g>
<!-- [root] provider.aws (close)&#45;&gt;[root] aws_batch_job_queue.print&#45;my&#45;brain&#45;job&#45;queue -->
<g id="edge27" class="edge">
<title>[root] provider.aws (close)&#45;&gt;[root] aws_batch_job_queue.print&#45;my&#45;brain&#45;job&#45;queue</title>
<path fill="none" stroke="#000000" d="M700.3143,-432.937C719.658,-423.2651 744.1004,-411.0439 765.0176,-400.5854"/>
<polygon fill="#000000" stroke="#000000" points="766.6652,-403.6748 774.0442,-396.0721 763.5346,-397.4138 766.6652,-403.6748"/>
</g>
<!-- [root] provider.aws (close)&#45;&gt;[root] aws_iam_role_policy_attachment.instance&#45;role -->
<g id="edge28" class="edge">
<title>[root] provider.aws (close)&#45;&gt;[root] aws_iam_role_policy_attachment.instance&#45;role</title>
<path fill="none" stroke="#000000" d="M629.1443,-433.1192C607.6599,-423.3288 580.3432,-410.8807 557.1078,-400.2924"/>
<polygon fill="#000000" stroke="#000000" points="558.3132,-396.9955 547.7621,-396.0336 555.4105,-403.3653 558.3132,-396.9955"/>
</g>
<!-- [root] provider.aws (close)&#45;&gt;[root] aws_iam_role_policy_attachment.job&#45;role -->
<g id="edge29" class="edge">
<title>[root] provider.aws (close)&#45;&gt;[root] aws_iam_role_policy_attachment.job&#45;role</title>
<path fill="none" stroke="#000000" d="M766.5631,-445.1266C842.3658,-439.0952 937.4288,-425.6851 962.1883,-396 972.4366,-383.7129 972.99,-371.8036 962.1883,-360 946.4528,-342.805 665.1069,-323.736 490.7143,-313.4928"/>
<polygon fill="#000000" stroke="#000000" points="490.8689,-309.9959 480.6816,-312.9063 490.4603,-316.984 490.8689,-309.9959"/>
</g>
<!-- [root] root -->
<g id="node21" class="node">
<title>[root] root</title>
<ellipse fill="none" stroke="#000000" cx="517.1883" cy="-522" rx="46.8976" ry="18"/>
<text text-anchor="middle" x="517.1883" y="-517.8" font-family="Times,serif" font-size="14.00" fill="#000000">[root] root</text>
</g>
<!-- [root] root&#45;&gt;[root] meta.count&#45;boundary (EachMode fixup) -->
<g id="edge31" class="edge">
<title>[root] root&#45;&gt;[root] meta.count&#45;boundary (EachMode fixup)</title>
<path fill="none" stroke="#000000" d="M487.9483,-507.7751C467.0504,-497.6086 438.5239,-483.7308 414.667,-472.1248"/>
<polygon fill="#000000" stroke="#000000" points="415.9655,-468.8643 405.442,-467.6369 412.9032,-475.159 415.9655,-468.8643"/>
</g>
<!-- [root] root&#45;&gt;[root] provider.aws (close) -->
<g id="edge32" class="edge">
<title>[root] root&#45;&gt;[root] provider.aws (close)</title>
<path fill="none" stroke="#000000" d="M546.6259,-507.7751C568.1341,-497.3819 597.6687,-483.1101 622.0018,-471.3519"/>
<polygon fill="#000000" stroke="#000000" points="623.5644,-474.4841 631.0455,-466.9818 620.5187,-468.1814 623.5644,-474.4841"/>
</g>
</g>
</svg>
